<?xml version="1.0" standalone="no"?>
<!DOCTYPE svg PUBLIC "-//W3C//DTD SVG 20010904//EN"
 "http://www.w3.org/TR/2001/REC-SVG-20010904/DTD/svg10.dtd">
<svg version="1.0" xmlns="http://www.w3.org/2000/svg"
 width="700.000000pt" height="700.000000pt" viewBox="0 0 700.000000 700.000000"
 preserveAspectRatio="xMidYMid meet">
<metadata>
Created by potrace 1.11, written by Peter Selinger 2001-2013
</metadata>
<g transform="translate(0.000000,700.000000) scale(0.100000,-0.100000)"
fill="#000000" stroke="none">
<path d="M0 3500 l0 -3500 3500 0 3500 0 0 3500 0 3500 -3500 0 -3500 0 0
-3500z m6990 0 l0 -3490 -3490 0 -3490 0 0 3490 0 3490 3490 0 3490 0 0 -3490z"/>
<path d="M2000 5185 l-34 -35 894 0 894 0 -34 35 -34 35 -826 0 -826 0 -34
-35z"/>
<path d="M2908 5071 l-33 -29 -3 -461 c-2 -447 -2 -462 18 -509 16 -37 75
-102 263 -290 l243 -243 183 20 c101 11 186 22 189 25 3 4 -9 326 -27 718 -25
554 -35 717 -47 739 -29 57 -41 59 -413 59 l-341 0 -32 -29z"/>
<path d="M4590 4085 l-85 -85 88 0 87 0 0 85 c0 47 -1 85 -3 85 -1 0 -40 -38
-87 -85z"/>
<path d="M2391 3698 c14 -18 28 -37 31 -43 4 -6 -27 -9 -86 -7 -227 9 -412
-65 -576 -228 -143 -142 -213 -309 -212 -505 3 -556 615 -908 1122 -644 190
99 328 270 379 469 17 69 18 70 36 50 38 -42 69 -9 59 62 -39 269 -183 537
-372 691 -106 87 -255 161 -366 181 l-40 8 25 -34z m32 -373 c126 -33 225
-113 283 -229 125 -254 -35 -548 -325 -598 -344 -59 -622 291 -472 596 92 188
308 285 514 231z"/>
<path d="M2239 2971 c-37 -37 -38 -79 -3 -120 21 -25 33 -31 65 -31 55 0 89
34 89 90 0 85 -90 121 -151 61z"/>
<path d="M3830 3425 l0 -285 567 -2 567 -3 -42 -27 c-68 -45 -131 -119 -172
-202 -22 -43 -40 -85 -40 -94 0 -9 -10 -27 -22 -41 -18 -20 -18 -22 -3 -9 20
16 20 16 17 -50 -16 -296 256 -551 563 -529 281 20 495 241 495 512 0 122 -40
226 -128 334 -31 37 -31 40 -12 46 11 3 23 18 27 33 5 21 0 31 -26 53 -70 58
-203 108 -329 123 -53 7 -54 6 -101 -37 -34 -32 -65 -50 -107 -62 -32 -9 -70
-23 -85 -30 l-25 -14 -33 257 c-17 141 -34 269 -37 285 l-6 27 -534 0 -534 0
0 -285z m1534 -468 c107 -50 170 -147 170 -262 0 -118 -56 -209 -167 -267 -35
-19 -58 -23 -137 -23 -79 0 -102 4 -137 23 -109 58 -166 147 -166 260 0 223
230 364 437 269z"/>
<path d="M5180 2730 c-11 -11 -20 -29 -20 -40 0 -24 42 -70 63 -70 28 0 67 41
67 69 0 56 -70 81 -110 41z"/>
</g>
</svg>
