<svg id="Capa_1" data-name="Capa 1" xmlns="http://www.w3.org/2000/svg" viewBox="0 0 453.9 512"><defs><style>.cls-1{fill:#3fe8ab;}.cls-2{fill:#907cff;}</style></defs><title>reload</title><path class="cls-1" d="M475.22,79.82,386.43,5A21.33,21.33,0,0,0,359,37.67l44,37.41H192.16A121.2,121.2,0,0,0,71.09,196.15v38.28a21.32,21.32,0,1,0,42.64,0V195.78a78.56,78.56,0,0,1,78.43-78.43h211l-44,37.41a21.33,21.33,0,0,0,27.43,32.67l88.78-74.82a21.32,21.32,0,0,0,2.63-30,21.78,21.78,0,0,0-2.63-2.63Z" transform="translate(-29.06 0)"/><path class="cls-2" d="M419,255.88a21.33,21.33,0,0,0-21.32,21.32v38.66a78.56,78.56,0,0,1-78.43,78.43h-211l44-37.41a21.32,21.32,0,1,0-20.62-37.33,21.07,21.07,0,0,0-6.19,5.16L36.67,399.53a21.33,21.33,0,0,0-2.63,30,22.53,22.53,0,0,0,2.63,2.63L125.45,507a21.33,21.33,0,0,0,27.44-32.67l-44-37.4H319.23A121.22,121.22,0,0,0,440.3,315.86V277.2A21.32,21.32,0,0,0,419,255.88Z" transform="translate(-29.06 0)"/></svg>
