<svg id="footer-svg" data-name="—ÎÓÈ_1" xmlns="http://www.w3.org/2000/svg" viewBox="0 0 509.79 183.2"><defs><style>.cls-1{fill:#786f76;}.cls-2{fill:#3fe8ab;}</style></defs><title>farmy</title><path class="cls-1" d="M378.51,557.65h80.4v17.4h-61.8v44h49v17.41h-49v59h-18.6Z" transform="translate(-378.51 -557.65)"/><path class="cls-1" d="M544.11,695.44V681c-6.2,10.4-19.2,16.4-32.8,16.4a46.34,46.34,0,0,1-33.6-13.6c-9.2-9-13.8-20.8-13.8-35.2,0-14.6,4.6-26.19,13.8-35.19s20.4-13.4,33.6-13.4c13.6,0,27,5.8,32.8,16v-14h18v93.39Zm-9.6-69.4a32,32,0,0,0-21.6-8.19c-8.6,0-16,2.8-21.8,8.6-5.8,5.59-8.6,13-8.6,22s3,16.59,8.8,22.39a29.41,29.41,0,0,0,21.6,8.8,31.16,31.16,0,0,0,22-8.4q9-8.4,9-22.79C543.91,639,540.71,631.45,534.51,626Z" transform="translate(-378.51 -557.65)"/><path class="cls-1" d="M582.51,695.44V602.05h18v93.39Z" transform="translate(-378.51 -557.65)"/><path class="cls-1" d="M721.51,645v50.4h-18.2v-53c0-15.2-8-24.6-20.2-24.6-14.4,0-26,9-26,27.19v50.4h-18.2V602.05h18.2v14c4.6-9.39,16.4-14.79,25.8-15.59a42.46,42.46,0,0,1,10.2.6c11.8,1.8,20,8,24.4,18.2q9.9-19.2,32.4-19.2c23.19,0,36,15,36,41.4v54H767.71v-52.8c0-15.39-8-24.79-21.41-24.79C731.11,617.65,721.51,629,721.51,645Z" transform="translate(-378.51 -557.65)"/><path class="cls-1" d="M830.31,740.84h-19l19.6-48.2-37.4-90.59h19.4l28,67.59,28-67.59H888.3Z" transform="translate(-378.51 -557.65)"/><ellipse class="cls-2" cx="237.47" cy="56.25" rx="12.6" ry="11.86"/></svg>
