<svg id="Capa_1" data-name="Capa 1" xmlns="http://www.w3.org/2000/svg" viewBox="0 0 400.8 496.99"><defs><style>.cls-1{fill:#907cff;}.cls-2{fill:#eaecee;}.cls-3{fill:#d5d9de;}.cls-4{fill:#3fe8ab;}</style></defs><title>Aménagement Valence</title><polygon class="cls-1" points="400.8 328.65 200.4 496.99 0 328.65 0 40.08 200.4 0 400.8 40.08 400.8 328.65"/><polygon class="cls-2" points="32.06 313.71 32.06 66.37 200.4 32.7 368.74 66.37 368.74 313.71 200.4 455.12 32.06 313.71"/><polygon class="cls-3" points="64.13 305.06 64.13 59.95 32.06 66.37 32.06 313.71 200.4 455.12 221.58 437.32 64.13 305.06"/><circle class="cls-4" cx="200.4" cy="208.42" r="104.21"/><circle class="cls-4" cx="200.4" cy="208.42" r="80.16"/><path d="M144.28,215.93A111.72,111.72,0,1,0,256,104.21,111.85,111.85,0,0,0,144.28,215.93Zm208.41,0A96.69,96.69,0,1,1,256,119.24,96.79,96.79,0,0,1,352.69,215.93Z" transform="translate(-55.6 -7.52)"/><path d="M249.89,135.77v16.71a35.57,35.57,0,0,0,3.51,71h8a20.54,20.54,0,0,1,0,41.08h-12A16.56,16.56,0,0,1,232.85,248a7.52,7.52,0,0,0-15,0,31.6,31.6,0,0,0,31.57,31.57h.5v16.53a7.52,7.52,0,1,0,15,0V279.38a35.57,35.57,0,0,0-3.51-71h-8a20.55,20.55,0,1,1,0-41.09h12A16.55,16.55,0,0,1,282,183.87v8a7.52,7.52,0,1,0,15,0v-8a31.6,31.6,0,0,0-31.56-31.57h-.5V135.77a7.52,7.52,0,0,0-15,0Z" transform="translate(-55.6 -7.52)"/></svg>
