<svg id="Capa_1" data-name="Capa 1" xmlns="http://www.w3.org/2000/svg" viewBox="0 0 456 480"><defs><style>.cls-1{fill:#a1aab1;}.cls-2{fill:#3fe8ab;}.cls-3{fill:#b3d5e4;}.cls-4{fill:#433e42;}</style></defs><title>policy</title><path class="cls-1" d="M353.78,319.6l13-13A55.53,55.53,0,0,1,362.35,296H344V264h18.35a55.53,55.53,0,0,1,4.39-10.64l-13-13L368,226.18V24H48V488H368V333.82ZM240,80h0ZM136,112h0Zm88,32h0ZM120,240h0ZM80,208h0Zm120,64h0ZM336,400H317.65a55.53,55.53,0,0,1-4.39,10.64l13,13L303.6,446.22l-13-13A55.53,55.53,0,0,1,280,437.65V456H248V437.65a55.53,55.53,0,0,1-10.64-4.39l-13,13L201.78,423.6l13-13A55.53,55.53,0,0,1,210.35,400H192V368h18.35a55.53,55.53,0,0,1,4.39-10.64l-13-13,22.62-22.62,13,13A55.53,55.53,0,0,1,248,330.35V312h32v18.35a55.53,55.53,0,0,1,10.64,4.39l13-13,22.62,22.62-13,13A55.53,55.53,0,0,1,317.65,368H336ZM136,240h0Zm120-32h0ZM80,176h0Zm160-32h0Zm-88-32h0ZM256,80h0Z" transform="translate(-40 -16)"/><path class="cls-2" d="M313.26,357.36l13-13L303.6,321.78l-13,13A55.53,55.53,0,0,0,280,330.35V312H248v18.35a55.53,55.53,0,0,0-10.64,4.39l-13-13L201.78,344.4l13,13A55.53,55.53,0,0,0,210.35,368H192v32h18.35a55.53,55.53,0,0,0,4.39,10.64l-13,13,22.62,22.62,13-13A55.53,55.53,0,0,0,248,437.65V456h32V437.65a55.53,55.53,0,0,0,10.64-4.39l13,13,22.62-22.62-13-13A55.53,55.53,0,0,0,317.65,400H336V368H317.65A55.53,55.53,0,0,0,313.26,357.36ZM264,416a32,32,0,1,1,32-32A32,32,0,0,1,264,416Z" transform="translate(-40 -16)"/><circle class="cls-3" cx="224" cy="368" r="32"/><path class="cls-2" d="M488,296V264H469.65a55.53,55.53,0,0,0-4.39-10.64l13-13L455.6,217.78l-13,13A55.53,55.53,0,0,0,432,226.35V208H400v18.35a55.53,55.53,0,0,0-10.64,4.39l-13-13-8.4,8.4L353.78,240.4l13,13A55.53,55.53,0,0,0,362.35,264H344v32h18.35a55.53,55.53,0,0,0,4.39,10.64l-13,13L368,333.82l8.4,8.4,13-13A55.53,55.53,0,0,0,400,333.65V352h32V333.65a55.53,55.53,0,0,0,10.64-4.39l13,13,22.62-22.62-13-13A55.53,55.53,0,0,0,469.65,296Zm-72,16a32,32,0,1,1,32-32A32,32,0,0,1,416,312Z" transform="translate(-40 -16)"/><circle class="cls-2" cx="376" cy="264" r="32"/><path class="cls-2" d="M376.4,217.78l13,13A55.53,55.53,0,0,1,400,226.35V208h8V24H368V226.18Z" transform="translate(-40 -16)"/><path class="cls-2" d="M400,333.65a55.53,55.53,0,0,1-10.64-4.39l-13,13-8.4-8.4V488h40V352h-8Z" transform="translate(-40 -16)"/><path class="cls-4" d="M264,344a40,40,0,1,0,40,40A40,40,0,0,0,264,344Zm0,64a24,24,0,1,1,24-24A24,24,0,0,1,264,408Z" transform="translate(-40 -16)"/><path class="cls-4" d="M336,360H323.33c-.14-.33-.27-.66-.4-1l9-9a8,8,0,0,0,0-11.32l-22.63-22.63a8.24,8.24,0,0,0-11.32,0l-9,9-1-.4V312a8,8,0,0,0-8-8H248a8,8,0,0,0-8,8v12.67l-1,.4-9-9a8,8,0,0,0-11.32,0l-22.63,22.63a8,8,0,0,0,0,11.32l9,9c-.13.32-.27.65-.4,1H192a8,8,0,0,0-8,8v32a8,8,0,0,0,8,8h12.67c.14.33.27.66.4,1l-9,9a8,8,0,0,0,0,11.32l22.63,22.63a8.24,8.24,0,0,0,11.32,0l9-9,1,.4V456a8,8,0,0,0,8,8h32a8,8,0,0,0,8-8V443.33l1-.4,9,9a8,8,0,0,0,11.32,0l22.63-22.63a8,8,0,0,0,0-11.32l-9-9c.13-.32.27-.65.4-1H336a8,8,0,0,0,8-8V368A8,8,0,0,0,336,360Zm-8,32H317.65a8,8,0,0,0-7.67,5.72,47.1,47.1,0,0,1-3.75,9.11,8,8,0,0,0,1.38,9.47l7.3,7.31L303.6,434.92l-7.3-7.3a8,8,0,0,0-9.48-1.38,47.48,47.48,0,0,1-9.11,3.75,8,8,0,0,0-5.71,7.66V448H256V437.65a8,8,0,0,0-5.72-7.67,47.1,47.1,0,0,1-9.11-3.75,8,8,0,0,0-9.47,1.38l-7.31,7.3L213.08,423.6l7.3-7.3a8,8,0,0,0,1.38-9.48,47.48,47.48,0,0,1-3.75-9.11,8,8,0,0,0-7.66-5.71H200V376h10.35a8,8,0,0,0,7.67-5.72,47.1,47.1,0,0,1,3.75-9.11,8,8,0,0,0-1.38-9.47l-7.3-7.31,11.31-11.31,7.3,7.3a8,8,0,0,0,9.48,1.38,47.48,47.48,0,0,1,9.11-3.75,8,8,0,0,0,5.71-7.66V320h16v10.35a8,8,0,0,0,5.72,7.67,47.1,47.1,0,0,1,9.11,3.75,8,8,0,0,0,9.47-1.38l7.31-7.3,11.31,11.31-7.3,7.3a8,8,0,0,0-1.38,9.48,47.48,47.48,0,0,1,3.75,9.11,8,8,0,0,0,7.66,5.71H328Z" transform="translate(-40 -16)"/><path class="cls-4" d="M416,240a40,40,0,1,0,40,40A40,40,0,0,0,416,240Zm0,64a24,24,0,1,1,24-24A24,24,0,0,1,416,304Z" transform="translate(-40 -16)"/><path class="cls-4" d="M488,256H475.33c-.14-.33-.27-.66-.4-1l9-9a8,8,0,0,0,0-11.32l-22.63-22.63a8.24,8.24,0,0,0-11.32,0l-9,9-1-.4V208a8,8,0,0,0-8-8H416V24a8,8,0,0,0-8-8H48a8,8,0,0,0-8,8V488a8,8,0,0,0,8,8H408a8,8,0,0,0,8-8V360h16a8,8,0,0,0,8-8V339.33l1-.4,9,9a8,8,0,0,0,11.32,0l22.63-22.63a8,8,0,0,0,0-11.32l-9-9c.13-.32.27-.65.4-1H488a8,8,0,0,0,8-8V264A8,8,0,0,0,488,256Zm-88-56a8,8,0,0,0-8,8v12.67l-1,.4-9-9a8,8,0,0,0-5.66-2.34H376V32h24ZM56,32H360V222.86l-11.88,11.88a8,8,0,0,0,0,11.32l9,9c-.14.32-.27.65-.4,1H344a8,8,0,0,0-8,8v32a8,8,0,0,0,8,8h12.67c.14.33.27.66.4,1l-9,9a8,8,0,0,0,0,11.32L360,337.14V480H56ZM400,480H376V350.22a7.7,7.7,0,0,0,6.06-2.34l9-9,1,.4V352a8,8,0,0,0,8,8Zm80-192H469.65a8,8,0,0,0-7.67,5.72,47.1,47.1,0,0,1-3.75,9.11,8,8,0,0,0,1.38,9.47l7.3,7.31L455.6,330.92l-7.3-7.3a8,8,0,0,0-9.48-1.38,47.48,47.48,0,0,1-9.11,3.75,8,8,0,0,0-5.71,7.66V344H408V333.65a8,8,0,0,0-5.72-7.67,47.1,47.1,0,0,1-9.11-3.75,8,8,0,0,0-9.47,1.38l-7.31,7.3L365.08,319.6l7.3-7.3a8,8,0,0,0,1.38-9.48,47.48,47.48,0,0,1-3.75-9.11,8,8,0,0,0-7.66-5.71H352V272h10.35a8,8,0,0,0,7.67-5.72,47.1,47.1,0,0,1,3.75-9.11,8,8,0,0,0-1.38-9.47l-7.3-7.31,11.31-11.31,7.3,7.3a7.82,7.82,0,0,0,2.42,1.61,6.14,6.14,0,0,0,.86.27,7.77,7.77,0,0,0,1.92.37c.16,0,.31.1.47.1s.6-.08.89-.11.47,0,.7-.09a8,8,0,0,0,2.22-.77,47.48,47.48,0,0,1,9.11-3.75,8,8,0,0,0,5.71-7.66V216h16v10.35a8,8,0,0,0,5.72,7.67,47.1,47.1,0,0,1,9.11,3.75,8,8,0,0,0,9.47-1.38l7.31-7.3,11.31,11.31-7.3,7.3a8,8,0,0,0-1.38,9.48,47.48,47.48,0,0,1,3.75,9.11,8,8,0,0,0,7.66,5.71H480Z" transform="translate(-40 -16)"/><rect class="cls-4" x="216" y="56" width="80" height="16"/><rect class="cls-4" x="40" y="56" width="160" height="16"/><rect class="cls-4" x="112" y="88" width="184" height="16"/><rect class="cls-4" x="40" y="88" width="56" height="16"/><rect class="cls-4" x="200" y="120" width="96" height="16"/><rect class="cls-4" x="40" y="120" width="144" height="16"/><rect class="cls-4" x="40" y="152" width="256" height="16"/><rect class="cls-4" x="216" y="184" width="80" height="16"/><rect class="cls-4" x="40" y="184" width="160" height="16"/><rect class="cls-4" x="96" y="216" width="200" height="16"/><rect class="cls-4" x="40" y="216" width="40" height="16"/><rect class="cls-4" x="40" y="248" width="120" height="16"/></svg>
