<svg id="_ÎÓÈ_1" data-name="—ÎÓÈ_1" xmlns="http://www.w3.org/2000/svg" viewBox="0 0 723.92 521.59"><defs><style>.cls-1{fill:#433e42;}.cls-2{fill:#3fe8ab;}.cls-3{fill:#8fb7b7;}.cls-4{fill:#28272b;}.cls-5{fill:#a1aab1;}.cls-6{fill:#fff;opacity:0.2;}.cls-7{fill:#414042;}</style></defs><title>Flat styles tractor illustration vector [Converti]</title><path class="cls-1" d="M767.11,520.65a18.46,18.46,0,0,0,18.46,18.46h0A18.47,18.47,0,0,0,804,520.65V483.74a18.47,18.47,0,0,0-18.46-18.46h0a18.46,18.46,0,0,0-18.46,18.46Z" transform="translate(-264.87 -305.32)"/><polygon class="cls-2" points="379.2 12.31 391.5 209.18 686.81 209.18 721.52 406.28 551.46 418.35 280.76 418.35 34.68 283 22.37 258.4 46.98 196.87 71.59 12.31 379.2 12.31"/><path class="cls-3" d="M632.39,343.59a14.49,14.49,0,0,0-14.3-13.66h-108a13.71,13.71,0,0,0-13.67,13.67V488.52c0,7.52,4.35,18,9.67,23.34L585.18,591c5.32,5.32,15.82,9.67,23.34,9.67H630.4A13,13,0,0,0,643.45,587Z" transform="translate(-264.87 -305.32)"/><path class="cls-3" d="M471.81,355.91a13.71,13.71,0,0,0-13.68-13.67H374.74a15.17,15.17,0,0,0-14.81,13.62l-10,120.4a12.4,12.4,0,0,0,12.53,13.63h95.7a13.71,13.71,0,0,0,13.68-13.67Z" transform="translate(-264.87 -305.32)"/><polygon class="cls-1" points="576.07 258.4 391.5 258.4 391.5 356.83 588.38 356.83 576.07 258.4"/><path class="cls-4" d="M265.93,700.77c0,69.1,58.25,125.1,130.09,125.1s130.1-56,130.1-125.1S467.87,575.67,396,575.67,265.93,631.68,265.93,700.77Z" transform="translate(-264.87 -305.32)"/><path d="M264.87,700.77c0-69.55,58.83-126.13,131.15-126.13s131.15,56.58,131.15,126.13S468.34,826.91,396,826.91,264.87,770.33,264.87,700.77Zm2.12,0c0,68.41,57.89,124.07,129,124.07s129-55.66,129-124.07S467.17,576.71,396,576.71,267,632.37,267,700.77Z" transform="translate(-264.87 -305.32)"/><ellipse class="cls-5" cx="131.15" cy="395.45" rx="75.65" ry="72.75"/><path class="cls-5" d="M319.79,700.77c0-40.43,34.2-73.33,76.23-73.33s76.24,32.9,76.24,73.33-34.2,73.34-76.24,73.34S319.79,741.21,319.79,700.77Zm1.17,0c0,39.8,33.67,72.17,75.06,72.17s75.07-32.37,75.07-72.17S437.41,628.62,396,628.62,321,661,321,700.77Z" transform="translate(-264.87 -305.32)"/><path d="M379.45,701.44A15.58,15.58,0,1,0,395,686.21,15.41,15.41,0,0,0,379.45,701.44Z" transform="translate(-264.87 -305.32)"/><path class="cls-4" d="M806.83,739.05c0,48.13,40.56,87.14,90.61,87.14s90.61-39,90.61-87.14-40.57-87.13-90.61-87.13S806.83,690.94,806.83,739.05Z" transform="translate(-264.87 -305.32)"/><path d="M806.09,739.05c0-48.44,41-87.85,91.35-87.85s91.35,39.41,91.35,87.85-41,87.86-91.35,87.86S806.09,787.5,806.09,739.05Zm1.48,0c0,47.65,40.31,86.42,89.87,86.42s89.87-38.77,89.87-86.42S947,652.64,897.44,652.64,807.57,691.41,807.57,739.05Z" transform="translate(-264.87 -305.32)"/><path class="cls-5" d="M844.75,739.05c0,28,23.59,50.67,52.69,50.67s52.69-22.68,52.69-50.67-23.59-50.66-52.69-50.66S844.75,711.07,844.75,739.05Z" transform="translate(-264.87 -305.32)"/><path class="cls-5" d="M844.34,739.05c0-28.16,23.82-51.07,53.1-51.07s53.1,22.91,53.1,51.07-23.83,51.09-53.1,51.09S844.34,767.22,844.34,739.05Zm.81,0c0,27.72,23.46,50.27,52.29,50.27s52.28-22.55,52.28-50.27-23.45-50.26-52.28-50.26S845.15,711.34,845.15,739.05Z" transform="translate(-264.87 -305.32)"/><path d="M885.9,739.52a10.85,10.85,0,1,0,10.85-10.61A10.72,10.72,0,0,0,885.9,739.52Z" transform="translate(-264.87 -305.32)"/><path class="cls-1" d="M798.7,729.77a8.53,8.53,0,0,0,8.27-6.54c9.63-40.26,47.92-69.47,91-69.47a94.93,94.93,0,0,1,57.65,19.14,8.51,8.51,0,0,0,10.25-13.59A111.77,111.77,0,0,0,898,636.74a113.19,113.19,0,0,0-69.09,23.48,106.69,106.69,0,0,0-38.5,59,8.54,8.54,0,0,0,8.29,10.5Z" transform="translate(-264.87 -305.32)"/><path class="cls-1" d="M532.65,727a6.29,6.29,0,0,0,1.05-.09c4.13-.67,7-5.16,6.44-10C535.48,677.48,520.21,641.57,496,613c-24.41-28.76-56.48-47.37-90.3-52.43a129.28,129.28,0,0,0-95,23.43c-3.56,2.57-4.68,8-2.5,12.22s6.84,5.5,10.39,2.93c51.9-37.38,122-26.28,166.75,26.4,21.9,25.78,35.69,58.2,39.89,93.75C525.7,723.77,528.94,727,532.65,727Z" transform="translate(-264.87 -305.32)"/><polygon class="cls-1" points="379.2 12.31 366.89 0 83.89 0 71.59 12.31 379.2 12.31"/><path class="cls-6" d="M537.77,543.55l-31.68-31.69a26.73,26.73,0,0,1-3.44-4.34L621,330.26a14.54,14.54,0,0,1,11.35,13.33l2.48,54.58Z" transform="translate(-264.87 -305.32)"/><path class="cls-6" d="M445,342.24h13.15a13.71,13.71,0,0,1,13.68,13.67v34.77l-66.26,99.21H362.43a12.4,12.4,0,0,1-11.36-7.05Z" transform="translate(-264.87 -305.32)"/><path class="cls-7" d="M350.09,488.66a16.55,16.55,0,0,1-4.28-12.73l10-120.41a19.32,19.32,0,0,1,18.9-17.39h83.39a17.8,17.8,0,0,1,17.78,17.78V476.22A17.79,17.79,0,0,1,458.13,494h-95.7A16.56,16.56,0,0,1,350.09,488.66Zm24.65-142.32A11.08,11.08,0,0,0,364,356.2L354,476.61a8.3,8.3,0,0,0,8.44,9.18h95.7a9.59,9.59,0,0,0,9.58-9.57V355.91a9.59,9.59,0,0,0-9.58-9.57Z" transform="translate(-264.87 -305.32)"/><path class="cls-7" d="M582.28,593.86l-79.1-79.1c-6.09-6.09-10.87-17.62-10.87-26.24V343.6a17.8,17.8,0,0,1,17.78-17.77h108a18.6,18.6,0,0,1,18.39,17.57l11.06,243.39a17.06,17.06,0,0,1-17.14,17.94H608.52C599.91,604.73,588.38,600,582.28,593.86ZM510.09,334a9.58,9.58,0,0,0-9.57,9.57V488.52c0,6.38,4,15.93,8.46,20.44l79.1,79.1c4.51,4.51,14.07,8.47,20.44,8.47H630.4a8.86,8.86,0,0,0,9-9.37L628.29,343.78a10.45,10.45,0,0,0-10.2-9.75Z" transform="translate(-264.87 -305.32)"/></svg>
