<svg id="Capa_1" data-name="Capa 1" xmlns="http://www.w3.org/2000/svg" viewBox="0 0 464.01 464"><defs><style>.cls-1{fill:#3fe8ab;}.cls-2{fill:#f2bb80;}.cls-3{fill:#e8a16d;}</style></defs><title>ecology</title><path class="cls-1" d="M272,304H256a80,80,0,0,1,80-80h16A80,80,0,0,1,272,304Z" transform="translate(-24 -24)"/><path class="cls-1" d="M272,192H256a80,80,0,0,1,80-80h16A80,80,0,0,1,272,192Z" transform="translate(-24 -24)"/><path class="cls-1" d="M256,80h16a56,56,0,0,0,56-56H312A56,56,0,0,0,256,80Z" transform="translate(-24 -24)"/><path class="cls-2" d="M160.49,326.08l-.49-.28-56.1-62.34a22.5,22.5,0,0,0-31.78-1.62L72,262V145.36A24.92,24.92,0,0,0,49.29,120,24,24,0,0,0,24,142.68q0,.66,0,1.32V295.42a63.94,63.94,0,0,0,8.06,31.08L104,456v32H216V421.8A110.29,110.29,0,0,0,160.49,326.08Z" transform="translate(-24 -24)"/><path class="cls-1" d="M256,384a8,8,0,0,1-8-8V72a8,8,0,0,1,16,0V376A8,8,0,0,1,256,384Z" transform="translate(-24 -24)"/><path class="cls-1" d="M160,224h16a80,80,0,0,1,80,80H240a80,80,0,0,1-80-80Z" transform="translate(-24 -24)"/><path class="cls-1" d="M160,112h16a80,80,0,0,1,80,80H240a80,80,0,0,1-80-80Z" transform="translate(-24 -24)"/><path class="cls-1" d="M256,80H240a56,56,0,0,1-56-56h16A56,56,0,0,1,256,80Z" transform="translate(-24 -24)"/><path class="cls-3" d="M135.41,373.8a8,8,0,0,1-5.92-2.62L63.94,299.09a30.53,30.53,0,0,1,1-42.15,8,8,0,0,1,11.32,11.32,14.53,14.53,0,0,0-.48,20.07l65.54,72.09a8,8,0,0,1-5.91,13.38Z" transform="translate(-24 -24)"/><path class="cls-2" d="M296,421.8V488H408V456l71.94-129.5A63.94,63.94,0,0,0,488,295.42V145.36A24.92,24.92,0,0,0,465.29,120,24,24,0,0,0,440,142.68q0,.66,0,1.32V262a22.49,22.49,0,0,0-31.78,1.39l-.12.12L352,325.8l-.49.28A110.29,110.29,0,0,0,296,421.8Z" transform="translate(-24 -24)"/><path class="cls-3" d="M376.59,373.8a8,8,0,0,0,5.92-2.62l65.55-72.09a30.53,30.53,0,0,0-1-42.15,8,8,0,0,0-11.32,11.32,14.53,14.53,0,0,1,.48,20.07l-65.54,72.09a8,8,0,0,0,5.91,13.38Z" transform="translate(-24 -24)"/></svg>
