<svg id="Calque_1" data-name="Calque 1" xmlns="http://www.w3.org/2000/svg" xmlns:xlink="http://www.w3.org/1999/xlink" viewBox="0 0 29.08 41.6"><defs><style>.cls-1{fill:none;}.cls-2{clip-path:url(#clip-path);}.cls-3{fill:#3fe8ab;}.cls-4,.cls-5{fill:#fff;}.cls-5{opacity:0.2;}</style><clipPath id="clip-path" transform="translate(-291 -375.4)"><rect class="cls-1" x="291" y="375" width="29.76" height="42.96"/></clipPath></defs><title>AdobeAIR</title><g class="cls-2"><path class="cls-3" d="M315.82,379.66a14.53,14.53,0,0,0-20.56,0c-5.12,5.11-5.69,14.75-1.35,20.54L305.54,417l11.64-16.8c4.34-5.79,3.76-15.43-1.36-20.54ZM305.68,394.6" transform="translate(-291 -375.4)"/></g><path class="cls-4" d="M309.58,387.91a.48.48,0,0,0,.48.49h0a.49.49,0,0,0,.49-.49v-1a.49.49,0,0,0-.49-.49h0a.48.48,0,0,0-.48.49Z" transform="translate(-291 -375.4)"/><polygon class="cls-4" points="15.34 7.16 15.66 12.35 23.44 12.35 24.35 17.54 19.87 17.86 12.74 17.86 6.26 14.29 5.93 13.64 6.58 12.02 7.23 7.16 15.34 7.16"/><path class="cls-3" d="M306,383.25a.38.38,0,0,0-.38-.36H302.8a.36.36,0,0,0-.36.36v3.82a1,1,0,0,0,.26.61l2.08,2.08a1,1,0,0,0,.62.26H306a.34.34,0,0,0,.35-.36Z" transform="translate(-291 -375.4)"/><path class="cls-3" d="M301.8,383.57a.36.36,0,0,0-.36-.36h-2.2a.4.4,0,0,0-.39.36l-.27,3.17a.33.33,0,0,0,.33.36h2.53a.36.36,0,0,0,.36-.36Z" transform="translate(-291 -375.4)"/><path class="cls-4" d="M296.37,392.66a3.43,3.43,0,1,0,3.43-3.3A3.36,3.36,0,0,0,296.37,392.66Z" transform="translate(-291 -375.4)"/><path class="cls-4" d="M296.34,392.66A3.46,3.46,0,1,1,299.8,396,3.4,3.4,0,0,1,296.34,392.66Zm.06,0a3.4,3.4,0,1,0,3.4-3.27A3.35,3.35,0,0,0,296.4,392.66Z" transform="translate(-291 -375.4)"/><ellipse class="cls-3" cx="8.8" cy="17.26" rx="1.99" ry="1.92"/><path class="cls-3" d="M297.79,392.66a2,2,0,1,1,2,1.93A2,2,0,0,1,297.79,392.66Zm0,0a2,2,0,1,0,2-1.9A1.95,1.95,0,0,0,297.82,392.66Z" transform="translate(-291 -375.4)"/><path class="cls-4" d="M299.36,392.67a.41.41,0,0,0,.41.41.41.41,0,1,0,0-.81A.41.41,0,0,0,299.36,392.67Z" transform="translate(-291 -375.4)"/><path class="cls-4" d="M310.62,393.67a2.39,2.39,0,1,0,2.39-2.3A2.34,2.34,0,0,0,310.62,393.67Z" transform="translate(-291 -375.4)"/><path class="cls-4" d="M310.6,393.67A2.41,2.41,0,1,1,313,396,2.37,2.37,0,0,1,310.6,393.67Zm0,0a2.37,2.37,0,1,0,2.37-2.28A2.32,2.32,0,0,0,310.64,393.67Z" transform="translate(-291 -375.4)"/><path class="cls-3" d="M311.62,393.67a1.39,1.39,0,1,0,1.39-1.34A1.36,1.36,0,0,0,311.62,393.67Z" transform="translate(-291 -375.4)"/><path class="cls-3" d="M311.61,393.67A1.4,1.4,0,1,1,313,395,1.37,1.37,0,0,1,311.61,393.67Zm0,0a1.38,1.38,0,1,0,1.38-1.33A1.35,1.35,0,0,0,311.63,393.67Z" transform="translate(-291 -375.4)"/><path class="cls-4" d="M312.7,393.68a.29.29,0,0,0,.58,0,.29.29,0,0,0-.58,0Z" transform="translate(-291 -375.4)"/><polygon class="cls-4" points="15.34 7.16 15.01 6.84 7.55 6.84 7.23 7.16 15.34 7.16"/><path class="cls-5" d="M303.53,388.51l-.83-.83-.09-.11,3.12-4.67a.38.38,0,0,1,.3.35l.06,1.43Z" transform="translate(-291 -375.4)"/><path class="cls-5" d="M301.09,383.21h.35a.36.36,0,0,1,.36.36v.92l-1.75,2.61h-1.14a.31.31,0,0,1-.29-.18Z" transform="translate(-291 -375.4)"/><path class="cls-4" d="M298.59,387.07a.45.45,0,0,1-.11-.34l.26-3.17a.52.52,0,0,1,.5-.46h2.2a.47.47,0,0,1,.46.47v3.17a.47.47,0,0,1-.46.47h-2.53A.43.43,0,0,1,298.59,387.07Zm.65-3.75a.29.29,0,0,0-.28.26l-.27,3.17a.24.24,0,0,0,.06.17.2.2,0,0,0,.16.07h2.53a.25.25,0,0,0,.25-.25v-3.17a.25.25,0,0,0-.25-.25Z" transform="translate(-291 -375.4)"/><path class="cls-4" d="M304.71,389.84l-2.09-2.08a1.11,1.11,0,0,1-.28-.69v-3.82a.47.47,0,0,1,.46-.47h2.85a.48.48,0,0,1,.48.46l.3,6.41a.47.47,0,0,1-.13.34.44.44,0,0,1-.33.14h-.57A1.1,1.1,0,0,1,304.71,389.84ZM302.8,383a.25.25,0,0,0-.25.25v3.82a.91.91,0,0,0,.23.53l2.08,2.09a.9.9,0,0,0,.54.22H306a.29.29,0,0,0,.18-.07.28.28,0,0,0,.06-.18l-.29-6.41a.27.27,0,0,0-.27-.25Z" transform="translate(-291 -375.4)"/></svg>
