<svg id="Calque_1" data-name="Calque 1" xmlns="http://www.w3.org/2000/svg" xmlns:xlink="http://www.w3.org/1999/xlink" viewBox="0 0 92.72 92.72"><defs><style>.cls-1{fill:none;}.cls-2{clip-path:url(#clip-path);}.cls-3{fill:#3fe8ab;}</style><clipPath id="clip-path" transform="translate(-259.16 -350.16)"><rect class="cls-1" x="259" y="350" width="92.88" height="93.84"/></clipPath></defs><title>search (1)</title><g class="cls-2"><path class="cls-3" d="M315.8,422.32a36.24,36.24,0,1,0-27.68-13l-28,28a3.28,3.28,0,0,0,0,4.64,3.28,3.28,0,0,0,4.64,0l28-28a35.43,35.43,0,0,0,23,8.4Zm0-65.6a29.52,29.52,0,1,1-29.52,29.52,29.6,29.6,0,0,1,29.52-29.52Zm0,0" transform="translate(-259.16 -350.16)"/></g></svg>
