<svg id="Capa_1" data-name="Capa 1" xmlns="http://www.w3.org/2000/svg" viewBox="0 0 59.39 58"><defs><style>.cls-1{fill:#a1aab1;}.cls-2{fill:#a1aab1;}.cls-3{fill:#433e42;}.cls-4{fill:#8697cb;}.cls-5{fill:#3fe8ab;}.cls-6{fill:#fff;}</style></defs><title>stopwatch</title><circle class="cls-1" cx="29" cy="29" r="29"/><path class="cls-2" d="M29,4.7a25,25,0,1,1-25,25,25,25,0,0,1,25-25m0-4a29,29,0,1,0,29,29,29,29,0,0,0-29-29Z" transform="translate(0 -0.69)"/><path class="cls-3" d="M29,6.57a1,1,0,0,0-1,1v1a1,1,0,0,0,2,0v-1A1,1,0,0,0,29,6.57Z" transform="translate(0 -0.69)"/><path class="cls-3" d="M29,49.57a1,1,0,0,0-1,1v1a1,1,0,0,0,2,0v-1A1,1,0,0,0,29,49.57Z" transform="translate(0 -0.69)"/><path class="cls-3" d="M51,28.57H50a1,1,0,0,0,0,2h1a1,1,0,0,0,0-2Z" transform="translate(0 -0.69)"/><path class="cls-3" d="M8,28.57H7a1,1,0,0,0,0,2H8a1,1,0,0,0,0-2Z" transform="translate(0 -0.69)"/><path class="cls-3" d="M43.85,13.31l-.71.71a1,1,0,0,0,0,1.41,1,1,0,0,0,.71.29,1,1,0,0,0,.71-.29l.7-.71a1,1,0,0,0-1.41-1.41Z" transform="translate(0 -0.69)"/><path class="cls-3" d="M13.44,43.72l-.7.7a1,1,0,0,0,1.41,1.42l.71-.71a1,1,0,1,0-1.42-1.41Z" transform="translate(0 -0.69)"/><path class="cls-4" d="M44.56,43.72a1,1,0,0,0-1.42,0,1,1,0,0,0,0,1.41l.71.71a1,1,0,1,0,1.41-1.42Z" transform="translate(0 -0.69)"/><path class="cls-3" d="M14.15,13.31a1,1,0,0,0-1.41,1.41l.7.71a1,1,0,0,0,1.42,0,1,1,0,0,0,0-1.41Z" transform="translate(0 -0.69)"/><path class="cls-3" d="M26,30.57H18a1,1,0,0,1,0-2h8a1,1,0,0,1,0,2Z" transform="translate(0 -0.69)"/><path class="cls-3" d="M29,27.57a1,1,0,0,1-1-1v-11a1,1,0,0,1,2,0v11A1,1,0,0,1,29,27.57Z" transform="translate(0 -0.69)"/><path class="cls-3" d="M29,33.57a4,4,0,1,1,4-4A4,4,0,0,1,29,33.57Zm0-6a2,2,0,1,0,2,2A2,2,0,0,0,29,27.57Z" transform="translate(0 -0.69)"/><circle class="cls-5" cx="47.39" cy="46" r="12"/><path class="cls-6" d="M54,40.87a1,1,0,0,0-1.39.25l-5.6,8L43,45.92a1,1,0,0,0-1.4.14,1,1,0,0,0,.14,1.41l4.78,3.93a1.05,1.05,0,0,0,.64.22h.13A1,1,0,0,0,48,51.2l6.21-8.93A1,1,0,0,0,54,40.87Z" transform="translate(0 -0.69)"/></svg>
